PathFileType	4	(x/y/z)	S04_P20_T21.trc
DataRate	CameraRate	NumFrames	NumMarkers	Units	OrigDataRate	OrigDataStartFrame	OrigNumFrames
240	240	7	51	mm	240	136	361
Frame#	Time	Sternum			R.Acromium			L.Acromium			Top.Head			R.ASIS			L.ASIS			R.PSIS			L.PSIS			R.Great.Tro			L.Great.Tro			R.Iliac.Crest			L.Iliac.Crest			V.Sacral			R.Thigh.Upper.Post			R.Thigh.Lower.Ant			R.Thigh.Lower.Post			R.Thigh.Upper.Ant			R.Knee.Lat			R.Knee.Med			R.Shank.Upper.Post			R.Shank.Lower.Ant			R.Shank.Lower.Post			R.Shank.Upper.Ant			R.Ankle.Lat			R.Ankle.Med			R.Heel.Upper			R.Heel.Med			R.Heel.Lat			R.Toe.Lat			R.Toe.Med			R.Toe.Tip			L.Thigh.Upper.Post			L.Thigh.Lower.Ant			L.Thigh.Lower.Post			L.Thigh.Upper.Ant			L.Knee.Lat			L.Knee.Med			L.Shank.Upper.Post			L.Shank.Lower.Ant			L.Shank.Lower.Post			L.Shank.Upper.Ant			L.Ankle.Lat			L.Ankle.Med			L.Heel.Upper			L.Heel.Med			L.Heel.Lat			L.Toe.Lat			L.Toe.Med			L.Toe.Tip			Cervical.Spine			Back			
		X1	Y1	Z1	X2	Y2	Z2	X3	Y3	Z3	X4	Y4	Z4	X5	Y5	Z5	X6	Y6	Z6	X7	Y7	Z7	X8	Y8	Z8	X9	Y9	Z9	X10	Y10	Z10	X11	Y11	Z11	X12	Y12	Z12	X13	Y13	Z13	X14	Y14	Z14	X15	Y15	Z15	X16	Y16	Z16	X17	Y17	Z17	X18	Y18	Z18	X19	Y19	Z19	X20	Y20	Z20	X21	Y21	Z21	X22	Y22	Z22	X23	Y23	Z23	X24	Y24	Z24	X25	Y25	Z25	X26	Y26	Z26	X27	Y27	Z27	X28	Y28	Z28	X29	Y29	Z29	X30	Y30	Z30	X31	Y31	Z31	X32	Y32	Z32	X33	Y33	Z33	X34	Y34	Z34	X35	Y35	Z35	X36	Y36	Z36	X37	Y37	Z37	X38	Y38	Z38	X39	Y39	Z39	X40	Y40	Z40	X41	Y41	Z41	X42	Y42	Z42	X43	Y43	Z43	X44	Y44	Z44	X45	Y45	Z45	X46	Y46	Z46	X47	Y47	Z47	X48	Y48	Z48	X49	Y49	Z49	X50	Y50	Z50	X51	Y51	Z51	

136	0.5625	-561.53	1266.7	268.75	-700.39	1490.5	443.84	-700.09	1477	93.274	-696.98	1816	251.01	-586.41	988.34	390.15	-610.95	995.15	144.11	-809.53	1010.5	313.71	-806.72	1014.6	233.72	-657.08	905.02	462.38	-737.01	908.97	88.505	-673.07	1071.1	441.65	-705.8	1078.5	105.69	-827.42	969.99	275.31	-590.94	652.5	438.33	-500.05	596.52	391.77	-566.96	566.63	418.38	-519.6	702.48	419.47	-522.6	511.26	403.49	-564.95	500.3	276.69	-557.93	275.02	401.56	-485.87	210.38	348.64	-548.9	206.63	384.91	-496.55	278.69	374.88	-524.92	97.67	358.74	-508.89	116.29	268.71	-586.38	68.447	301.1	-574.26	39.905	269.95	-579.57	35.44	334.26	-409.17	45.447	380.16	-375.36	55.592	264.09	-314.87	82.457	310.83	-769.69	676.8	102.43	-696.44	574.89	92.003	-766.08	587.4	109.33	-704.32	664.94	83.268	-746.82	490.49	103.96	-723.5	468.94	227.94	-921.31	398.96	124.22	-918.94	288.54	118.42	-962.28	333.96	132.66	-876.67	353.05	109.27	-1028.9	176.1	147.24	-1010.6	188.84	236.98	-1103.6	202.58	196.45	-1111.1	184.6	234.17	-1120.2	176.63	173.15	-988	55.547	138.71	-949.13	56.385	252.26	-902.91	39.814	204.78	-751.5	1534.9	271.76	-823.8	1276.6	248.72
137	0.56667	-555.88	1267	268.97	-694.61	1490.7	444.37	-694.9	1477.5	93.828	-691.69	1816.3	251.71	-580.68	988.72	390.56	-605.4	995.28	144.53	-803.89	1010.7	313.92	-801.05	1014.7	233.93	-651.44	905.48	462.75	-730.88	908.66	88.837	-667.24	1071.4	441.96	-700.24	1078.7	106.03	-821.76	970.16	275.61	-585.65	652.82	438.67	-494.97	596.58	392.04	-561.92	566.88	418.77	-514.21	702.6	419.71	-517.88	511.14	403.72	-560.35	500.47	277.07	-555.08	275.12	401.99	-483.84	209.83	348.66	-546.74	206.64	385.24	-493.81	278.22	374.94	-524.11	97.514	358.89	-507.99	116.06	268.9	-586	68.743	301.29	-574.09	40.198	270.07	-579.42	35.642	334.38	-408.82	44.424	380.25	-374.95	54.242	264.04	-314.13	80.418	310.76	-760.95	675.72	101.96	-686.59	574.65	90.932	-756.31	586.35	108.6	-695.48	664.63	82.522	-735.87	489.98	102.86	-712.05	468.05	226.99	-911.07	401.23	123.5	-910.55	290.78	117.63	-953.13	336.88	131.97	-867.21	354.63	108.53	-1022.4	180.36	146.37	-1003.5	192.77	236.05	-1095.9	209.57	195.65	-1104	192.16	233.6	-1113.6	184.07	172.56	-985.6	58.069	138.41	-946.21	58.419	251.67	-901.05	39.671	204.16	-746.01	1535.2	272.43	-818.2	1276.8	249.33
138	0.57083	-550.26	1267.4	269.16	-688.8	1490.9	444.88	-689.71	1477.9	94.365	-686.41	1816.6	252.41	-575.01	989.12	390.96	-599.88	995.44	144.93	-798.29	1011.1	314.12	-795.43	1014.8	234.13	-645.88	905.97	463.12	-724.79	908.38	89.173	-661.48	1071.7	442.27	-694.75	1078.9	106.36	-816.17	970.37	275.91	-580.5	653.12	439.01	-490.02	596.62	392.35	-557.02	567.12	419.15	-508.93	702.7	420.01	-513.29	511.03	403.95	-555.83	500.67	277.42	-552.34	275.22	402.38	-481.9	209.33	348.68	-544.68	206.67	385.55	-491.18	277.78	375.01	-523.37	97.401	359.01	-507.16	115.88	269.07	-585.66	69.01	301.46	-573.93	40.471	270.18	-579.27	35.831	334.49	-408.51	43.537	380.36	-374.58	53.022	264	-313.47	78.56	310.7	-752.16	674.69	101.51	-676.69	574.49	89.89	-746.48	585.37	107.9	-686.61	664.39	81.781	-724.8	489.56	101.79	-700.51	467.3	226.1	-900.63	403.56	122.78	-901.92	293.08	116.87	-943.75	339.87	131.3	-857.55	356.28	107.82	-1015.6	184.72	145.51	-996.1	196.76	235.13	-1087.9	216.57	194.87	-1096.6	199.71	233.05	-1106.6	191.54	171.98	-982.89	60.822	138.05	-942.94	60.638	250.99	-898.86	39.622	203.4	-740.51	1535.5	273.09	-812.64	1277.1	249.93
139	0.575	-544.67	1267.8	269.32	-682.96	1491.1	445.37	-684.51	1478.4	94.884	-681.14	1816.9	253.12	-569.4	989.55	391.36	-594.41	995.62	145.33	-792.75	1011.4	314.32	-789.87	1014.9	234.32	-640.38	906.48	463.47	-718.75	908.12	89.51	-655.78	1072.1	442.56	-689.31	1079.1	106.7	-810.63	970.62	276.21	-575.49	653.42	439.35	-485.21	596.63	392.69	-552.28	567.35	419.52	-503.76	702.78	420.36	-508.84	510.92	404.2	-551.4	500.88	277.75	-549.74	275.34	402.75	-480.07	208.86	348.71	-542.73	206.73	385.83	-488.68	277.36	375.08	-522.7	97.327	359.12	-506.41	115.74	269.23	-585.36	69.249	301.61	-573.78	40.722	270.28	-579.14	36.006	334.6	-408.24	42.777	380.48	-374.24	51.924	263.95	-312.88	76.876	310.64	-743.34	673.73	101.08	-666.74	574.44	88.882	-736.59	584.47	107.24	-677.72	664.22	81.051	-713.64	489.25	100.75	-688.92	466.69	225.28	-890.01	405.95	122.08	-893.05	295.46	116.13	-934.17	342.91	130.64	-847.71	358	107.14	-1008.6	189.17	144.67	-988.47	200.81	234.23	-1079.6	223.53	194.12	-1088.9	207.18	232.52	-1099.3	198.98	171.44	-979.83	63.8	137.62	-939.28	63.028	250.22	-896.31	39.686	202.5	-734.99	1535.8	273.74	-807.11	1277.4	250.52
140	0.57917	-539.11	1268.2	269.44	-677.08	1491.4	445.84	-679.31	1478.9	95.385	-675.87	1817.3	253.84	-563.84	989.99	391.74	-588.97	995.84	145.72	-787.26	1011.8	314.51	-784.36	1015.1	234.5	-634.95	907	463.82	-712.76	907.9	89.846	-650.14	1072.5	442.85	-683.94	1079.3	107.04	-805.15	970.9	276.51	-570.63	653.7	439.69	-480.54	596.61	393.05	-547.71	567.56	419.87	-498.72	702.81	420.75	-504.55	510.8	404.45	-547.1	501.11	278.04	-547.26	275.47	403.07	-478.35	208.42	348.73	-540.9	206.81	386.06	-486.29	276.96	375.14	-522.1	97.288	359.2	-505.71	115.63	269.36	-585.1	69.461	301.75	-573.64	40.95	270.37	-579.01	36.167	334.69	-408	42.134	380.6	-373.95	50.938	263.91	-312.37	75.357	310.58	-734.5	672.85	100.68	-656.76	574.48	87.915	-726.66	583.66	106.63	-668.82	664.14	80.338	-702.41	489.06	99.756	-677.29	466.23	224.52	-879.23	408.38	121.41	-883.97	297.91	115.43	-924.39	346	130.01	-837.7	359.79	106.48	-1001.3	193.69	143.85	-980.58	204.87	233.36	-1071.1	230.4	193.44	-1080.8	214.53	232.02	-1091.6	206.34	170.94	-976.39	66.989	137.11	-935.19	65.568	249.33	-893.37	39.886	201.45	-729.46	1536.1	274.37	-801.6	1277.8	251.09
141	0.58333	-533.59	1268.7	269.53	-671.19	1491.7	446.29	-674.11	1479.5	95.866	-670.61	1817.7	254.56	-558.35	990.45	392.12	-583.57	996.08	146.09	-781.81	1012.2	314.7	-778.91	1015.3	234.68	-629.59	907.53	464.15	-706.81	907.71	90.178	-644.56	1072.9	443.13	-678.62	1079.5	107.38	-799.73	971.21	276.8	-565.92	653.95	440.02	-476.03	596.56	393.43	-543.31	567.75	420.2	-493.81	702.8	421.17	-500.42	510.69	404.69	-542.92	501.34	278.3	-544.92	275.61	403.35	-476.72	208.02	348.75	-539.17	206.9	386.26	-484.03	276.58	375.19	-521.56	97.28	359.26	-505.08	115.55	269.47	-584.88	69.647	301.86	-573.52	41.153	270.44	-578.9	36.315	334.77	-407.81	41.596	380.72	-373.68	50.057	263.86	-311.92	73.992	310.52	-725.64	672.06	100.31	-646.76	574.64	86.994	-716.71	582.96	106.08	-659.92	664.15	79.648	-691.13	489	98.799	-665.65	465.94	223.82	-868.32	410.86	120.77	-874.68	300.41	114.77	-914.45	349.12	129.41	-827.56	361.66	105.86	-993.77	198.26	143.07	-972.45	208.94	232.52	-1062.3	237.13	192.82	-1072.4	221.68	231.58	-1083.7	213.56	170.5	-972.52	70.371	136.52	-930.66	68.234	248.35	-889.98	40.24	200.24	-723.92	1536.5	274.99	-796.13	1278.2	251.65
142	0.5875	-528.09	1269.1	269.6	-665.26	1492	446.73	-668.91	1480.1	96.328	-665.35	1818.1	255.27	-552.9	990.92	392.48	-578.18	996.37	146.44	-776.41	1012.7	314.89	-773.51	1015.5	234.87	-624.28	908.06	464.47	-700.92	907.58	90.503	-639.03	1073.4	443.39	-673.35	1079.8	107.72	-794.37	971.55	277.1	-561.36	654.19	440.33	-471.66	596.47	393.82	-539.08	567.91	420.5	-489.02	702.75	421.61	-496.45	510.56	404.93	-538.88	501.58	278.52	-542.71	275.75	403.58	-475.19	207.64	348.76	-537.56	207	386.42	-481.9	276.22	375.24	-521.08	97.298	359.29	-504.51	115.49	269.55	-584.69	69.811	301.95	-573.41	41.333	270.5	-578.79	36.452	334.83	-407.64	41.154	380.84	-373.45	49.27	263.81	-311.54	72.771	310.45	-716.78	671.36	99.985	-636.75	574.92	86.122	-706.73	582.38	105.58	-651.03	664.27	78.985	-679.82	489.09	97.887	-654.02	465.83	223.2	-857.31	413.39	120.18	-865.21	302.97	114.14	-904.36	352.27	128.85	-817.29	363.59	105.28	-986	202.84	142.33	-964.08	212.99	231.73	-1053.3	243.67	192.3	-1063.8	228.59	231.19	-1075.5	220.6	170.13	-968.2	73.924	135.84	-925.66	70.997	247.24	-886.1	40.768	198.87	-718.37	1537	275.58	-790.69	1278.7	252.2
